<?xml version="1.0" standalone="no"?>
<!DOCTYPE svg PUBLIC "-//W3C//DTD SVG 20010904//EN"
 "http://www.w3.org/TR/2001/REC-SVG-20010904/DTD/svg10.dtd">
<svg version="1.0" xmlns="http://www.w3.org/2000/svg"
 width="500.000000pt" height="500.000000pt" viewBox="0 0 500.000000 500.000000"
 preserveAspectRatio="xMidYMid meet">
<metadata>
Created by potrace 1.14, written by Peter Selinger 2001-2017
</metadata>
<g transform="translate(0.000000,500.000000) scale(0.100000,-0.100000)"
fill="#000000" stroke="none">
<path d="M0 2500 l0 -2500 1250 0 1250 0 0 49 c0 60 3 61 121 61 261 0 678
110 947 250 451 235 800 583 1036 1034 107 204 171 392 227 671 17 84 39 324
39 425 0 416 -133 890 -347 1238 -66 107 -139 212 -188 268 -5 7 -32 38 -60
70 -260 303 -640 554 -1040 688 -183 61 -505 116 -677 116 -54 0 -58 -2 -58
-23 0 -23 -4 -24 -138 -36 -145 -13 -248 -26 -297 -36 -55 -11 -260 -67 -300
-82 -139 -51 -399 -176 -436 -209 -8 -8 -19 -14 -22 -14 -9 0 -158 -103 -217
-149 -113 -89 -293 -269 -378 -377 -12 -16 -33 -42 -46 -59 -163 -210 -314
-530 -391 -835 -63 -247 -79 -621 -37 -885 61 -391 199 -719 431 -1032 258
-346 635 -633 1022 -776 124 -47 250 -87 269 -87 8 0 65 -11 125 -25 61 -14
179 -30 262 -37 l153 -12 0 -34 0 -35 -102 7 c-153 10 -333 35 -418 57 -211
56 -364 111 -514 186 -124 62 -184 99 -341 207 -73 50 -246 200 -315 272 -198
206 -389 495 -480 724 -50 126 -72 188 -86 235 -71 255 -93 391 -98 618 -7
303 15 480 94 752 201 688 729 1267 1401 1533 131 53 151 59 269 91 170 46
393 81 522 81 l68 0 0 55 0 55 -1250 0 -1250 0 0 -2500z m2850 2279 c544 -83
1066 -380 1415 -804 141 -172 282 -399 349 -565 74 -182 104 -282 157 -527 37
-171 36 -589 -1 -793 -43 -236 -116 -455 -218 -655 -53 -104 -91 -167 -179
-295 -93 -134 -291 -344 -435 -460 -377 -304 -793 -464 -1316 -506 -123 -10
-122 -12 -122 193 0 89 2 163 5 163 3 0 13 -4 23 -9 76 -39 125 -46 148 -20
19 21 58 19 121 -8 47 -19 246 -18 306 3 26 9 47 18 47 21 0 3 -16 23 -35 44
-35 40 -43 63 -25 74 20 12 50 84 50 119 0 18 11 54 25 77 13 24 27 63 31 87
5 34 10 42 27 42 51 0 76 70 37 105 -18 17 -20 31 -20 164 l0 145 -61 62 -61
62 7 131 c6 109 10 131 23 131 23 0 52 30 52 55 0 22 5 23 126 30 l126 7 62
-61 c57 -57 65 -61 107 -61 33 0 51 -6 64 -20 22 -24 72 -26 97 -3 21 19 24
62 4 88 -18 25 -83 26 -101 2 -8 -11 -26 -17 -51 -17 -35 0 -47 7 -98 59 l-58
59 -139 7 c-126 6 -139 9 -139 25 0 11 3 21 8 24 4 2 63 7 132 11 l125 7 61
-61 61 -61 84 0 c73 0 86 -3 97 -20 18 -29 76 -27 96 2 9 12 16 33 16 45 0 30
-34 63 -63 63 -13 0 -32 -9 -42 -20 -15 -17 -31 -20 -93 -20 l-75 0 -63 60
-62 60 -141 0 -141 0 0 23 c0 23 4 24 98 30 53 4 123 7 155 7 58 0 59 0 110
-55 l50 -55 423 0 423 0 25 -25 c33 -33 69 -32 96 2 36 46 8 103 -51 103 -14
0 -32 -7 -39 -15 -11 -13 -72 -15 -435 -15 l-422 0 -51 55 -51 55 -68 0 c-37
0 -112 3 -165 7 -94 6 -98 7 -98 30 l0 23 153 0 153 0 26 -30 26 -30 132 0
131 0 55 52 54 51 28 -26 c50 -48 112 -28 112 35 0 62 -53 87 -103 48 -14 -11
-36 -20 -49 -20 -15 0 -40 -17 -68 -45 l-44 -45 -109 0 c-107 0 -110 1 -144
30 -32 29 -37 30 -128 30 -57 0 -95 4 -95 10 0 6 -28 10 -65 10 -57 0 -65 2
-65 18 0 17 12 20 98 25 178 12 206 10 232 -18 21 -23 31 -25 105 -25 69 0 85
-3 100 -20 50 -55 142 13 101 75 -8 13 -24 26 -34 29 -23 8 -72 -9 -72 -24 0
-6 -31 -10 -78 -10 -71 0 -81 2 -102 25 -20 22 -32 25 -89 25 -36 0 -110 3
-163 7 -92 6 -98 7 -98 28 0 21 6 22 98 28 53 4 169 7 258 7 l160 0 29 -30
c26 -27 35 -30 92 -30 50 0 67 -4 83 -20 40 -40 110 -11 110 45 0 56 -70 85
-110 45 -15 -15 -33 -20 -73 -20 -46 0 -57 4 -82 30 l-29 30 -170 0 c-94 0
-215 3 -268 7 -86 5 -98 8 -98 25 0 15 8 18 59 18 33 0 63 5 66 10 11 17 37
11 61 -15 27 -30 53 -32 85 -7 15 13 22 30 22 51 0 63 -55 83 -112 40 -24 -18
-34 -20 -43 -11 -7 7 -40 12 -75 12 -55 0 -63 2 -63 19 0 17 12 19 126 26
l125 7 64 -61 63 -61 194 0 c181 0 195 -1 211 -20 25 -30 82 -27 103 4 21 33
15 65 -18 89 -24 18 -30 18 -57 7 -17 -7 -31 -16 -31 -21 0 -5 -87 -9 -193 -9
l-193 0 -58 59 -58 59 -139 7 c-138 7 -139 7 -139 31 l0 24 139 0 140 0 52
-55 52 -55 88 0 c78 0 90 -2 99 -20 15 -29 74 -27 94 2 22 31 20 64 -4 88 -26
26 -62 26 -85 0 -15 -17 -31 -20 -94 -20 l-77 0 -51 55 -52 55 -86 0 c-50 0
-85 4 -85 10 0 6 -28 10 -65 10 -57 0 -65 2 -65 18 0 17 12 20 98 25 184 13
205 11 236 -22 16 -16 25 -34 22 -39 -11 -18 16 -62 42 -69 14 -3 37 -2 51 3
21 8 27 16 29 50 3 47 -12 66 -56 68 -18 1 -41 14 -61 34 -30 30 -37 32 -99
32 -37 0 -111 3 -164 7 -94 6 -98 7 -98 30 0 22 3 23 73 24 39 1 137 0 217 -1
80 -1 156 3 170 8 14 6 53 37 85 71 l60 61 238 0 c223 0 240 -1 255 -19 42
-48 112 -21 112 44 0 58 -67 87 -105 45 -17 -19 -31 -20 -269 -20 l-252 0 -69
-70 -69 -70 -158 0 c-99 0 -158 4 -158 10 0 6 -28 10 -65 10 -57 0 -65 2 -65
19 0 16 11 19 92 25 50 3 120 6 155 6 77 0 88 5 154 75 l52 55 75 0 c65 0 78
-3 104 -25 34 -29 62 -26 91 7 23 27 22 59 -3 86 -26 27 -64 28 -90 2 -17 -17
-33 -20 -108 -20 l-88 0 -64 -65 -64 -65 -88 0 c-48 0 -90 5 -93 10 -3 6 -33
10 -66 10 -48 0 -59 3 -59 17 0 23 -29 53 -52 53 -15 0 -18 8 -18 59 0 33 -4
63 -10 66 -5 3 -10 44 -10 89 l0 83 65 68 65 68 0 89 c0 76 3 93 22 118 27 37
17 76 -24 100 -25 13 -30 13 -55 -2 -37 -22 -44 -79 -14 -105 18 -15 21 -29
21 -103 l0 -85 -60 -59 -60 -58 0 -98 c0 -55 -4 -102 -10 -105 -5 -3 -10 -33
-10 -66 0 -52 -2 -59 -20 -59 -18 0 -20 7 -20 65 0 36 -4 65 -8 65 -4 0 -8 81
-8 180 l0 180 -33 34 c-18 19 -30 39 -27 45 9 15 -10 48 -39 67 -21 14 -26 14
-54 -1 -61 -31 -45 -115 21 -115 21 0 42 -9 60 -27 28 -27 28 -27 28 -162 0
-75 -3 -180 -7 -233 -5 -83 -9 -98 -23 -98 -14 0 -18 15 -24 92 -3 50 -6 123
-6 161 l0 70 -60 63 -60 62 0 417 c0 402 1 417 20 437 38 42 12 118 -40 118
-26 0 -70 -43 -70 -68 0 -11 9 -31 20 -45 19 -24 20 -40 20 -450 l0 -424 60
-66 c68 -74 67 -68 53 -269 -5 -86 -8 -98 -25 -98 -15 0 -18 8 -18 59 0 33 -4
63 -10 66 -5 3 -10 41 -10 83 l0 77 -65 65 -64 65 -1 78 c0 64 4 84 20 104 26
33 25 61 -2 90 -27 28 -48 29 -82 2 -32 -25 -35 -68 -6 -94 17 -16 20 -31 20
-107 l0 -88 65 -67 c73 -75 71 -66 59 -241 -6 -78 -10 -92 -24 -92 -16 0 -19
16 -25 137 l-8 137 -58 62 -59 61 0 346 c0 334 1 348 20 367 11 11 20 29 20
40 0 24 -42 70 -65 70 -22 0 -19 -27 5 -40 27 -14 26 -48 -2 -60 -18 -6 -27
-4 -40 12 -23 26 -23 49 2 81 18 23 20 40 20 177 l0 153 143 -7 c78 -4 171
-12 207 -17z m-81 -148 c12 -8 13 -14 3 -35 -15 -33 -40 -33 -48 -2 -10 41 12
58 45 37z m-751 -431 c28 -26 28 -71 2 -95 -19 -17 -20 -31 -20 -199 l0 -182
55 -54 55 -54 0 -71 c0 -38 3 -114 7 -167 5 -83 9 -98 23 -98 14 0 18 15 23
98 12 176 11 190 -23 224 l-30 30 0 125 c0 119 -1 127 -25 155 -14 16 -25 38
-25 49 0 28 44 69 75 69 31 0 75 -41 75 -69 0 -11 -11 -33 -25 -49 -23 -28
-25 -37 -25 -139 l0 -109 35 -34 c32 -31 35 -38 35 -94 0 -127 13 -256 25
-256 12 0 25 123 25 245 0 53 -4 65 -25 85 -14 13 -25 34 -25 48 0 13 -9 35
-20 49 -27 34 -25 69 5 98 30 31 62 32 92 3 29 -27 31 -78 3 -103 -26 -24 -25
-41 5 -71 22 -22 25 -34 25 -92 0 -37 3 -111 7 -164 5 -83 9 -98 23 -98 14 0
18 15 23 98 4 53 7 168 7 256 l0 158 -30 35 c-26 30 -30 41 -30 96 0 50 -4 66
-20 80 -28 24 -27 81 2 101 31 22 70 20 96 -4 27 -26 28 -60 2 -93 -14 -18
-20 -40 -20 -79 0 -47 4 -58 30 -83 l30 -28 2 -266 c3 -240 5 -266 20 -269 13
-3 17 6 20 40 2 31 8 44 21 46 14 3 17 -5 17 -52 0 -49 -2 -56 -20 -56 -16 0
-20 -7 -20 -35 0 -33 -2 -35 -35 -35 -51 0 -211 -44 -299 -82 -90 -38 -184
-107 -225 -164 -45 -63 -113 -212 -127 -279 -15 -67 -17 -149 -5 -210 6 -32 8
-19 13 70 15 282 166 482 439 582 68 25 86 27 224 27 140 0 155 -2 225 -28
198 -75 339 -227 396 -426 34 -122 25 -251 -37 -486 -11 -38 -26 -118 -34
-176 -37 -263 -121 -342 -385 -359 -69 -4 -144 -11 -167 -15 -25 -4 -69 0
-115 9 -40 9 -104 19 -143 23 -38 3 -78 11 -87 16 -13 6 -18 5 -18 -6 0 -8 6
-16 13 -19 9 -4 9 -7 0 -17 -9 -10 -16 -10 -26 -2 -7 6 -23 9 -35 5 -20 -5
-22 -2 -22 39 0 31 -6 50 -19 62 -17 16 -18 13 -25 -84 -5 -73 -13 -113 -28
-141 -11 -22 -18 -43 -14 -46 3 -4 6 -1 6 5 0 6 12 24 26 41 21 25 33 31 66
31 21 0 48 -5 59 -11 11 -6 25 -8 32 -6 18 6 -48 37 -78 37 -27 0 -32 9 -13
28 29 29 142 -7 202 -65 41 -40 69 -52 58 -25 -5 15 -4 15 11 3 9 -7 17 -10
17 -5 0 13 -16 35 -26 37 -5 1 -9 9 -11 17 -1 8 9 3 23 -13 32 -37 31 -45 -11
-63 -34 -14 -37 -13 -68 9 -31 24 -67 40 -67 32 0 -2 14 -18 32 -34 34 -32 35
-37 3 -43 -13 -2 -19 2 -17 10 1 8 -1 11 -5 9 -5 -2 -32 -1 -61 3 -29 3 -55 3
-58 -1 -2 -5 -10 -6 -17 -3 -7 2 -13 -4 -14 -15 -1 -16 3 -18 37 -14 47 7 93
-4 84 -18 -3 -6 -13 -8 -21 -5 -21 8 -162 -22 -190 -40 -31 -20 -35 -18 -31
13 2 16 12 32 24 38 22 11 22 37 0 29 -10 -4 -15 31 -20 153 -4 87 -11 162
-17 167 -20 21 -28 -14 -35 -151 -6 -135 -6 -143 15 -169 42 -53 17 -124 -44
-124 -24 0 -39 7 -54 26 -26 33 -26 54 -1 87 22 28 24 58 14 228 -7 102 -7
104 -32 106 -28 1 -42 18 -42 49 0 19 -7 21 -97 27 -206 14 -201 15 -268 -53
l-59 -60 -98 0 c-57 0 -98 -4 -98 -10 0 -10 -52 -40 -70 -40 -21 0 -60 49 -60
76 0 34 36 74 65 74 12 0 34 -9 48 -20 21 -16 40 -20 109 -20 l85 0 52 55 53
55 103 0 c60 0 106 4 110 10 4 6 32 9 66 7 50 -3 59 -1 59 13 0 14 -16 18 -97
23 -54 4 -159 7 -233 7 l-136 0 -59 -60 -59 -60 -84 0 c-75 0 -87 -3 -114 -25
-16 -14 -38 -25 -47 -25 -26 0 -71 48 -71 75 0 25 45 75 67 75 20 0 56 -20 66
-36 6 -10 30 -14 80 -14 l73 0 64 65 64 65 146 0 c80 0 189 3 243 7 82 5 97 9
97 23 0 14 -15 18 -97 23 -54 4 -130 7 -168 7 l-71 0 -59 60 -59 60 -176 0
c-164 0 -176 -1 -188 -20 -18 -29 -85 -28 -106 2 -22 31 -20 68 6 95 26 28 57
29 91 3 21 -17 40 -20 109 -19 45 0 76 3 68 6 -47 17 -55 90 -14 122 l27 21
-345 0 c-332 0 -346 -1 -363 -20 -18 -20 -69 -27 -92 -12 -21 13 -33 60 -23
86 18 47 71 59 113 26 24 -19 40 -20 508 -20 l483 0 52 -51 52 -51 126 7 c111
7 126 10 126 25 0 15 -13 18 -82 23 -72 4 -86 2 -104 -14 -46 -43 -117 -11
-117 53 0 60 66 87 116 48 20 -16 40 -20 106 -20 72 0 81 2 81 18 0 17 -12 20
-97 25 -54 4 -174 7 -267 7 l-168 0 -35 30 c-28 25 -42 30 -84 30 -36 0 -58
-6 -76 -20 -33 -26 -61 -25 -90 2 -31 29 -31 81 -1 102 31 22 75 20 95 -4 14
-16 30 -20 80 -20 55 0 66 -4 96 -30 l35 -30 158 0 c88 0 203 3 257 7 82 5 97
9 97 23 0 14 -15 18 -97 23 -54 4 -127 7 -163 7 -56 0 -69 4 -92 25 -24 22
-36 25 -103 25 -41 0 -75 -4 -75 -9 0 -5 -13 -14 -29 -21 -70 -29 -134 57 -81
110 11 11 33 20 49 20 15 0 40 -9 54 -20 20 -16 40 -20 104 -20 72 0 82 -2
103 -25 20 -21 32 -25 85 -25 122 0 245 13 245 25 0 13 -123 25 -247 25 -58 0
-66 3 -102 35 l-38 35 -113 0 -113 0 -48 -45 -48 -45 -163 0 c-151 0 -165 -2
-181 -20 -34 -40 -117 -10 -117 43 0 21 18 59 34 69 21 15 66 8 83 -12 16 -18
30 -20 169 -20 l152 0 45 45 46 45 139 0 138 0 34 -35 c38 -39 48 -41 233 -28
82 5 97 9 97 23 0 14 -15 18 -97 23 -54 4 -130 7 -168 7 l-71 0 -59 60 -59 60
-173 0 c-170 0 -172 0 -197 -25 -32 -32 -60 -32 -91 0 -34 33 -33 77 1 104 33
26 54 26 87 1 23 -18 40 -20 212 -20 l187 0 62 -60 c62 -60 63 -60 123 -60
125 0 243 13 243 26 0 16 -27 25 -77 25 -21 0 -81 3 -134 5 l-96 5 -54 55 -53
54 -69 0 c-54 0 -74 -4 -94 -20 -14 -11 -36 -20 -49 -20 -52 0 -84 81 -47 122
22 24 77 24 103 -2 17 -17 33 -20 103 -20 l83 0 54 -55 54 -55 138 0 c128 0
138 1 138 19 0 16 -12 19 -114 25 -63 4 -130 4 -149 1 -30 -6 -40 -3 -62 19
-29 29 -28 64 2 99 33 36 113 11 113 -36 0 -19 5 -19 68 -14 37 4 84 7 105 7
28 0 37 4 37 18 1 25 24 52 47 52 18 0 21 9 27 92 11 163 12 160 -42 214 -82
83 -83 86 -81 229 1 105 -2 129 -16 144 -22 25 -22 76 0 101 24 26 76 26 100
0 24 -26 22 -65 -4 -100 -19 -26 -21 -43 -21 -147 l0 -118 64 -65 63 -66 8
-142 c6 -127 9 -142 25 -142 16 0 19 14 25 134 l7 134 -61 63 -61 64 0 78 c0
64 -4 84 -20 104 -25 33 -25 54 1 87 24 31 72 35 101 9 24 -21 23 -74 -2 -106
-15 -19 -20 -40 -20 -89 l0 -64 60 -59 c57 -57 60 -61 60 -110 0 -27 3 -94 7
-147 5 -88 8 -98 25 -98 17 0 19 7 17 60 -1 33 1 63 4 67 4 3 7 44 7 90 l0 85
-50 50 c-28 28 -55 59 -60 69 -6 10 -10 99 -10 198 0 168 -1 182 -20 201 -11
11 -20 33 -20 50 0 62 73 92 118 50z m1220 -258 c4 -28 -24 -41 -44 -20 -20
20 -7 50 20 46 13 -2 22 -12 24 -26z m-594 -28 c7 -19 -10 -44 -31 -44 -17 0
-27 24 -19 45 7 20 42 19 50 -1z m256 -74 c0 -25 -33 -43 -48 -28 -28 28 -3
75 30 57 10 -5 18 -18 18 -29z m-340 -272 l52 -53 -6 -95 c-3 -52 -6 -110 -6
-128 0 -29 -3 -33 -22 -30 -21 3 -24 10 -29 83 -7 74 -5 81 17 108 35 42 17
93 -36 99 -33 4 -41 -29 -8 -34 33 -4 33 -52 0 -56 -13 -2 -30 2 -38 8 -18 16
-18 64 1 84 8 8 15 26 15 40 0 14 2 26 4 26 2 0 28 -24 56 -52z m90 -253 c0
-42 -3 -55 -15 -55 -12 0 -15 13 -15 55 0 42 3 55 15 55 12 0 15 -13 15 -55z
m118 -3 c3 -47 1 -52 -17 -52 -18 0 -21 6 -21 48 0 27 3 52 7 56 16 16 28 -4
31 -52z m112 3 c0 -48 -2 -55 -20 -55 -17 0 -20 7 -20 48 0 51 5 62 27 62 9 0
13 -16 13 -55z m110 0 c0 -42 -3 -55 -15 -55 -12 0 -15 13 -15 55 0 42 3 55
15 55 12 0 15 -13 15 -55z m118 -4 c3 -46 1 -52 -15 -49 -13 2 -19 14 -21 42
-4 46 4 69 21 64 7 -3 13 -26 15 -57z m796 -27 c7 -19 -10 -44 -29 -44 -19 0
-36 25 -29 44 3 9 16 16 29 16 13 0 26 -7 29 -16z m471 -118 c0 -10 -8 -24
-18 -30 -14 -9 -21 -7 -32 7 -19 27 -8 49 24 45 18 -2 26 -9 26 -22z m-1067
-18 c3 -15 -5 -18 -52 -18 -50 0 -56 2 -56 21 0 18 5 20 52 17 41 -2 54 -7 56
-20z m2 -113 c0 -12 -13 -15 -55 -15 -42 0 -55 3 -55 15 0 12 13 15 55 15 42
0 55 -3 55 -15z m0 -120 c0 -12 -13 -15 -55 -15 -42 0 -55 3 -55 15 0 12 13
15 55 15 42 0 55 -3 55 -15z m338 -99 c5 -25 -12 -39 -37 -31 -20 6 -28 34
-14 49 13 13 48 1 51 -18z m-338 -16 c0 -18 -7 -20 -55 -20 -48 0 -55 2 -55
20 0 18 7 20 55 20 48 0 55 -2 55 -20z m-2 -114 c3 -13 -6 -16 -52 -16 -40 0
-56 4 -56 13 0 21 5 22 57 21 36 -1 49 -5 51 -18z m539 8 c3 -8 -1 -23 -10
-31 -21 -21 -47 -9 -47 22 0 20 5 25 25 25 14 0 28 -7 32 -16z m-392 -124 c0
-16 -6 -26 -19 -28 -25 -5 -39 12 -31 38 10 31 50 24 50 -10z m-147 -2 c3 -15
-5 -18 -52 -18 -40 0 -56 4 -56 13 0 23 12 28 60 25 33 -2 46 -7 48 -20z m752
7 c10 -12 10 -18 0 -30 -7 -8 -18 -15 -25 -15 -7 0 -18 7 -25 15 -10 12 -10
18 0 30 7 8 18 15 25 15 7 0 18 -7 25 -15z m-750 -120 c0 -12 -13 -15 -55 -15
-42 0 -55 3 -55 15 0 12 13 15 55 15 42 0 55 -3 55 -15z m684 -50 c7 -19 -20
-46 -39 -39 -21 8 -26 32 -9 48 16 17 40 12 48 -9z m-706 -53 c12 -1 22 -9 22
-17 0 -12 -13 -15 -55 -15 -39 0 -55 4 -55 13 0 23 4 24 88 19z m523 -48 c17
-21 0 -49 -32 -49 -27 0 -37 28 -19 50 16 19 34 19 51 -1z m223 -46 c15 -24
-10 -51 -35 -37 -22 11 -24 30 -7 47 15 15 28 11 42 -10z m-726 -35 c-3 -14
-14 -18 -53 -18 -39 0 -50 4 -53 18 -3 15 5 17 53 17 48 0 56 -3 53 -17z
m-206 -100 c9 -43 -32 -166 -50 -149 -2 3 1 34 7 68 16 83 21 98 31 98 5 0 10
-8 12 -17z m206 -15 c3 -15 -5 -18 -52 -18 -40 0 -56 4 -56 13 0 23 12 28 60
25 33 -2 46 -7 48 -20z m1247 -118 c0 -16 -6 -26 -19 -28 -25 -5 -39 12 -31
38 10 31 50 24 50 -10z m-1245 0 c0 -18 -7 -20 -55 -20 -48 0 -55 2 -55 20 0
18 7 20 55 20 48 0 55 -2 55 -20z m535 -108 c4 -10 -1 -21 -10 -29 -33 -23
-67 13 -39 41 17 17 40 12 49 -12z m-535 -7 c0 -12 -13 -15 -55 -15 -42 0 -55
3 -55 15 0 12 13 15 55 15 42 0 55 -3 55 -15z m454 -111 c7 -19 -10 -44 -31
-44 -17 0 -27 24 -19 45 7 20 42 19 50 -1z m-770 -59 c-1 -38 -5 -51 -17 -53
-14 -3 -17 6 -17 53 0 48 3 56 17 53 14 -2 17 -14 17 -53z m56 -4 c0 -33 5
-63 10 -66 6 -3 10 -41 10 -83 l0 -78 60 -59 60 -59 0 -138 c0 -89 -4 -139
-11 -144 -16 -10 -29 17 -22 44 4 16 -2 33 -16 52 -17 24 -21 43 -21 109 l0
80 -45 48 c-24 26 -45 51 -45 55 0 4 -7 14 -16 23 -14 14 -15 33 -9 145 7 118
9 130 26 130 17 0 19 -8 19 -59z m60 3 c0 -47 -3 -55 -17 -52 -13 2 -19 15
-21 42 -4 47 3 66 23 66 12 0 15 -12 15 -56z m-170 -28 c0 -25 5 -48 10 -51
13 -8 13 -55 0 -55 -17 0 -50 63 -50 96 0 29 15 54 32 54 4 0 8 -20 8 -44z
m-747 -33 c-7 -2 -19 -2 -25 0 -7 3 -2 5 12 5 14 0 19 -2 13 -5z m31 -9 c3 -8
2 -12 -4 -9 -6 3 -10 10 -10 16 0 14 7 11 14 -7z m103 0 c-3 -3 -12 -4 -19 -1
-8 3 -5 6 6 6 11 1 17 -2 13 -5z m345 -3 c-7 -4 -24 -6 -37 -3 -14 2 -43 -5
-66 -17 -22 -12 -37 -16 -34 -10 12 19 68 38 110 38 25 1 35 -2 27 -8z m152
-6 c12 -9 17 -21 13 -35 -3 -13 0 -23 9 -27 20 -7 18 -50 -3 -62 -14 -7 -10
-11 22 -16 53 -10 57 -13 45 -35 -9 -17 -19 -18 -95 -13 -70 5 -89 3 -111 -12
-14 -9 -23 -12 -20 -6 4 6 27 23 52 37 25 15 43 28 41 31 -8 8 -71 -23 -104
-51 -27 -22 -36 -25 -53 -16 -16 8 -18 15 -11 29 11 20 87 91 99 91 4 1 30 7
57 16 l50 14 -73 -6 c-93 -7 -129 -19 -169 -57 -36 -34 -41 -31 -19 12 41 78
215 147 270 106z m65 -19 c-3 -3 -11 5 -18 17 -13 21 -12 21 5 5 10 -10 16
-20 13 -22z m-615 2 c-2 -4 4 -11 13 -17 10 -5 16 -12 13 -14 -3 -3 -17 5 -32
17 -24 19 -25 22 -9 22 11 0 18 -4 15 -8z m111 -6 c-3 -3 -11 0 -18 7 -9 10
-8 11 6 5 10 -3 15 -9 12 -12z m115 9 c0 -5 -10 -15 -22 -23 -21 -14 -25 -13
-48 9 l-25 23 48 0 c26 0 47 -4 47 -9z m130 5 c0 -2 -7 -7 -16 -10 -8 -3 -12
-2 -9 4 6 10 25 14 25 6z m-75 -51 c-19 -20 -35 -40 -35 -46 0 -6 -5 -7 -10
-4 -21 13 -72 -8 -105 -42 -20 -20 -40 -33 -48 -30 -8 3 -19 1 -25 -5 -6 -6
-16 -7 -22 -3 -8 5 13 20 55 40 36 18 79 45 95 60 25 24 29 25 37 11 8 -14 14
-12 46 19 20 19 39 35 42 35 3 0 -10 -16 -30 -35z m-138 5 c11 -16 10 -21 -6
-29 -14 -8 -23 -6 -36 9 -10 11 -16 23 -12 26 3 3 11 -4 17 -16 8 -16 15 -19
23 -11 7 7 6 15 -3 26 -7 8 -8 15 -4 15 5 0 15 -9 21 -20z m476 13 c-7 -2 -21
-2 -30 0 -10 3 -4 5 12 5 17 0 24 -2 18 -5z m57 -52 c13 -24 4 -29 -35 -20
l-30 7 28 1 c40 2 33 19 -10 24 l-38 4 37 1 c28 2 40 -3 48 -17z m-330 -24 c0
-2 -12 -14 -27 -28 l-28 -24 24 28 c23 25 31 32 31 24z m-65 -125 c17 -49 24
-57 50 -62 23 -4 33 -13 42 -40 7 -19 12 -47 12 -62 1 -24 -4 -29 -41 -38 -24
-5 -59 -15 -78 -20 -19 -5 -37 -6 -41 -2 -10 11 -17 222 -7 216 4 -3 8 -11 8
-18 0 -7 7 -21 15 -32 15 -18 16 -17 9 16 -3 19 -15 47 -25 62 -20 28 -24 48
-10 48 5 0 18 -21 29 -47 16 -38 21 -43 21 -23 0 14 -5 35 -12 46 -35 60 -38
70 -15 41 12 -15 32 -54 43 -85z m445 67 c0 -14 -7 -19 -30 -19 -16 0 -30 5
-30 10 0 6 11 8 25 4 19 -5 25 -2 25 11 0 10 -5 13 -12 9 -7 -4 -8 -3 -4 5 10
16 26 4 26 -20z m-550 -24 c-7 -9 -15 -13 -17 -11 -7 7 7 26 19 26 6 0 6 -6
-2 -15z m-40 -21 c-14 -36 -12 -41 6 -18 15 19 16 19 8 -1 -4 -11 -8 -33 -10
-50 -3 -25 0 -22 20 20 l25 50 0 -75 c1 -81 -13 -145 -36 -171 -13 -16 -18
-16 -63 0 -28 9 -50 21 -50 28 0 7 13 31 29 55 32 48 56 113 47 127 -7 11 14
61 25 61 5 0 4 -12 -1 -26z m-260 6 c0 -5 12 -10 28 -10 l27 0 -25 -20 c-31
-23 -20 -38 12 -16 12 9 33 16 46 16 20 0 21 -3 12 -20 -6 -11 -17 -20 -25
-20 -20 0 -74 -69 -85 -109 -5 -19 -8 -36 -6 -38 1 -2 25 24 52 58 53 67 121
119 153 119 28 0 27 -26 -4 -81 -42 -74 -62 -123 -70 -167 -11 -70 -34 -90
-175 -158 -71 -34 -177 -109 -191 -136 -11 -21 -12 -21 -25 -3 -8 10 -14 42
-14 70 0 74 30 113 118 153 73 34 163 104 150 118 -4 4 -17 -5 -29 -19 -20
-27 -47 -38 -33 -15 7 11 -23 -9 -76 -51 -43 -35 -55 -27 -84 50 -30 81 -32
106 -11 156 22 53 76 93 130 98 31 3 34 1 24 -11 -14 -17 -23 -19 -13 -3 4 7
1 10 -7 7 -8 -3 -13 -12 -13 -20 1 -9 -6 -15 -14 -14 -20 1 -46 -49 -37 -72 5
-13 16 -5 56 40 30 34 63 61 84 68 36 12 44 25 23 33 -8 3 -6 6 5 6 9 1 17 -3
17 -9z m780 -5 c7 -9 8 -15 2 -15 -5 0 -12 7 -16 15 -3 8 -4 15 -2 15 2 0 9
-7 16 -15z m-835 -5 c-3 -5 -12 -10 -18 -10 -7 0 -6 4 3 10 19 12 23 12 15 0z
m665 0 c-20 -13 -43 -13 -35 0 3 6 16 10 28 10 18 0 19 -2 7 -10z m90 0 c-22
-7 -21 -8 13 -9 43 -1 73 -14 100 -45 28 -32 67 -118 67 -148 0 -25 -3 -27
-67 -33 -73 -6 -127 -17 -211 -41 -46 -13 -53 -18 -50 -37 2 -13 9 -21 17 -19
12 3 12 1 1 -13 -24 -29 -35 11 -33 114 1 51 -2 102 -8 112 -7 15 -6 19 6 19
9 0 15 9 15 23 0 21 -4 22 -45 20 -25 -1 -45 2 -45 7 0 6 24 10 53 10 55 0
161 33 136 43 -8 3 6 5 31 5 37 0 40 -1 20 -8z m145 -10 c3 -6 -1 -7 -9 -4
-18 7 -21 14 -7 14 6 0 13 -4 16 -10z m51 -31 c19 -22 19 -22 -3 -8 -13 8 -23
17 -23 21 0 12 6 9 26 -13z m-356 -40 c0 -14 -26 -11 -39 5 -9 11 -6 12 14 8
14 -2 25 -8 25 -13z m372 -187 c34 -14 68 -80 68 -131 0 -52 -43 -150 -69
-159 -10 -3 -12 0 -6 14 13 33 25 88 24 119 0 28 -2 27 -24 -20 -13 -27 -24
-54 -25 -58 0 -20 -105 -158 -178 -237 l-79 -85 -46 70 c-59 92 -72 103 -147
118 l-63 12 36 28 c20 15 40 27 45 27 26 0 62 46 81 103 29 87 110 159 215
192 44 14 140 18 168 7z m-277 -33 c-4 -6 -14 -8 -22 -5 -8 3 -11 2 -8 -3 3
-5 1 -12 -5 -16 -5 -3 -10 -2 -10 4 0 6 -7 8 -15 5 -8 -4 -15 -1 -15 4 0 10
23 18 63 21 11 0 15 -3 12 -10z m-147 -28 c20 -1 34 -52 27 -101 l-7 -44 -34
73 c-19 41 -34 75 -34 76 0 2 8 2 18 0 9 -2 23 -4 30 -4z m597 -51 c0 -38 -39
-35 -43 3 -3 25 0 28 20 25 17 -2 23 -9 23 -28z m-858 -56 c13 -4 20 -10 17
-15 -3 -5 2 -6 11 -3 18 7 47 -14 38 -29 -3 -6 -1 -7 6 -3 6 4 18 2 26 -4 8
-7 40 -20 72 -30 32 -11 53 -19 47 -19 -19 -1 -104 -73 -104 -88 0 -8 -4 -12
-9 -8 -5 3 -12 -4 -16 -15 -4 -11 -10 -18 -15 -15 -4 3 -11 -2 -14 -11 -3 -8
-10 -13 -15 -9 -5 3 -12 1 -16 -5 -7 -12 -73 -42 -130 -60 -22 -7 -44 -16 -48
-20 -5 -4 -23 -5 -40 -1 -18 4 -43 5 -56 3 -23 -4 -22 -4 9 -23 18 -11 30 -23
27 -26 -4 -3 -40 -2 -81 2 -118 11 -196 72 -198 157 -1 16 3 33 9 36 6 4 13
17 17 29 10 31 68 50 192 64 126 13 163 24 146 41 -9 9 -23 8 -59 -5 -73 -27
-41 -6 45 29 80 34 102 38 139 28z m275 -259 c18 -19 40 -58 49 -85 l16 -49
-32 -31 c-30 -29 -53 -40 -40 -20 3 6 2 10 -4 10 -5 0 -13 -4 -16 -10 -13 -21
-25 -9 -19 18 7 26 6 27 -13 10 -11 -10 -27 -18 -37 -18 -15 0 -15 2 0 25 18
27 5 35 -16 10 -15 -18 -40 -20 -40 -3 0 6 9 21 20 33 28 30 12 55 -24 36 -31
-17 -56 -2 -56 33 0 32 19 46 65 46 22 0 49 7 59 15 30 23 51 18 88 -20z
m-245 -47 c-3 -7 -5 -2 -5 12 0 14 2 19 5 13 2 -7 2 -19 0 -25z m533 -38 c0
-5 -5 -10 -11 -10 -5 0 -7 5 -4 10 3 6 8 10 11 10 2 0 4 -4 4 -10z m-547 -17
c-7 -2 -21 -2 -30 0 -10 3 -4 5 12 5 17 0 24 -2 18 -5z m-100 -30 c-7 -2 -19
-2 -25 0 -7 3 -2 5 12 5 14 0 19 -2 13 -5z m-85 -19 c15 -4 22 -14 22 -30 0
-13 9 -33 20 -44 24 -24 26 -57 4 -88 -11 -16 -25 -22 -54 -22 -64 0 -91 60
-50 113 11 14 20 37 20 51 0 28 3 29 38 20z"/>
<path d="M1951 4167 c-8 -10 -7 -18 2 -31 13 -17 14 -17 31 -1 13 13 14 20 5
31 -14 17 -24 18 -38 1z"/>
<path d="M2348 4068 c-8 -21 2 -38 22 -38 25 0 35 17 20 35 -15 18 -36 19 -42
3z"/>
<path d="M1707 4034 c-4 -4 -7 -16 -7 -26 0 -13 7 -18 26 -18 21 0 25 4 22 22
-3 23 -27 35 -41 22z"/>
<path d="M2123 3983 c-7 -3 -13 -13 -13 -24 0 -14 7 -19 25 -19 18 0 25 5 25
19 0 20 -17 31 -37 24z"/>
<path d="M1837 3923 c-15 -14 -7 -43 12 -43 26 0 36 17 21 35 -14 16 -23 19
-33 8z"/>
<path d="M2242 3758 c4 -27 33 -36 42 -13 8 22 -1 35 -25 35 -15 0 -20 -6 -17
-22z"/>
<path d="M1840 3335 c0 -25 5 -45 10 -45 6 0 10 20 10 45 0 25 -4 45 -10 45
-5 0 -10 -20 -10 -45z"/>
<path d="M1960 3335 c0 -25 5 -45 10 -45 6 0 10 20 10 45 0 25 -4 45 -10 45
-5 0 -10 -20 -10 -45z"/>
<path d="M2070 3335 c0 -33 4 -45 15 -45 11 0 15 12 15 45 0 33 -4 45 -15 45
-11 0 -15 -12 -15 -45z"/>
<path d="M2188 3335 c2 -25 8 -45 13 -45 5 0 9 20 9 45 0 29 -4 45 -13 45 -8
0 -11 -14 -9 -45z"/>
<path d="M2300 3336 c0 -35 4 -46 16 -46 12 0 14 9 12 42 -4 59 -28 63 -28 4z"/>
<path d="M2420 3335 c0 -25 5 -45 10 -45 6 0 10 20 10 45 0 25 -4 45 -10 45
-5 0 -10 -20 -10 -45z"/>
<path d="M1444 3215 c-7 -18 3 -35 21 -35 21 0 28 19 15 35 -16 19 -29 19 -36
0z"/>
<path d="M1103 3193 c-17 -6 -16 -28 0 -42 10 -8 17 -7 25 1 24 24 6 52 -25
41z"/>
<path d="M1632 3168 c3 -7 25 -14 51 -16 37 -2 47 0 47 12 0 12 -12 16 -51 16
-36 0 -49 -4 -47 -12z"/>
<path d="M848 3068 c-7 -18 2 -38 16 -38 18 0 35 21 29 36 -6 17 -39 18 -45 2z"/>
<path d="M1637 3063 c-17 -16 -3 -23 43 -23 38 0 50 4 50 15 0 11 -11 15 -43
15 -24 0 -47 -3 -50 -7z"/>
<path d="M1630 2940 c0 -5 23 -10 50 -10 28 0 50 5 50 10 0 6 -22 10 -50 10
-27 0 -50 -4 -50 -10z"/>
<path d="M1630 2820 c0 -5 23 -10 50 -10 28 0 50 5 50 10 0 6 -22 10 -50 10
-27 0 -50 -4 -50 -10z"/>
<path d="M614 2809 c-3 -6 1 -18 9 -27 13 -12 19 -13 31 -3 8 7 12 19 9 27 -6
17 -39 19 -49 3z"/>
<path d="M1134 2775 c-4 -9 -2 -21 4 -27 15 -15 44 -1 40 19 -4 23 -36 29 -44
8z"/>
<path d="M1637 2714 c-14 -14 6 -24 49 -24 32 0 44 4 44 15 0 11 -11 15 -43
15 -24 0 -47 -3 -50 -6z"/>
<path d="M951 2671 c-19 -12 -6 -43 16 -39 10 2 18 12 18 22 0 22 -14 29 -34
17z"/>
<path d="M1630 2590 c0 -5 23 -10 50 -10 28 0 50 5 50 10 0 6 -22 10 -50 10
-27 0 -50 -4 -50 -10z"/>
<path d="M1482 2478 c2 -15 10 -23 23 -23 13 0 21 8 23 23 3 18 -1 22 -23 22
-22 0 -26 -4 -23 -22z"/>
<path d="M331 2476 c-14 -17 -7 -36 14 -36 22 0 29 20 13 36 -13 13 -16 13
-27 0z"/>
<path d="M1630 2475 c0 -11 12 -15 50 -15 38 0 50 4 50 15 0 11 -12 15 -50 15
-38 0 -50 -4 -50 -15z"/>
<path d="M1158 2410 c26 -16 50 -20 116 -20 l83 0 63 -61 63 -62 96 7 c53 3
111 6 129 6 25 0 32 4 32 19 0 17 -12 19 -132 26 -73 4 -142 12 -153 18 -11 5
-37 27 -57 49 l-38 38 -117 0 -118 0 33 -20z"/>
<path d="M1822 2390 c0 -14 2 -19 5 -12 2 6 2 18 0 25 -3 6 -5 1 -5 -13z"/>
<path d="M1094 2365 c-4 -9 -2 -21 4 -27 15 -15 44 -1 40 19 -4 23 -36 29 -44
8z"/>
<path d="M1630 2360 c0 -5 23 -10 50 -10 28 0 50 5 50 10 0 6 -22 10 -50 10
-27 0 -50 -4 -50 -10z"/>
<path d="M1180 2319 c-6 -11 -21 -24 -33 -29 -15 -6 8 -9 73 -9 l96 -1 59 -60
c58 -59 60 -60 115 -60 121 0 250 13 250 25 0 12 -122 25 -234 25 -50 0 -53 2
-116 65 l-64 65 -68 0 c-58 0 -69 -3 -78 -21z"/>
<path d="M844 2259 c-8 -14 21 -43 35 -35 6 4 11 16 11 27 0 21 -34 27 -46 8z"/>
<path d="M1637 2254 c-14 -14 6 -24 49 -24 32 0 44 4 44 15 0 11 -11 15 -43
15 -24 0 -47 -3 -50 -6z"/>
<path d="M1850 2177 c-38 -57 -31 -116 22 -187 18 -23 46 -63 61 -89 16 -25
26 -37 22 -26 -4 11 -16 58 -27 105 -34 149 -51 211 -58 215 -3 2 -13 -6 -20
-18z m34 -94 c9 -38 19 -78 22 -90 9 -34 -9 -28 -28 10 -35 66 -44 147 -18
147 5 0 15 -30 24 -67z"/>
<path d="M2149 2169 c-26 -26 -20 -33 15 -19 15 5 38 10 52 10 15 0 24 6 24
15 0 24 -66 19 -91 -6z"/>
<path d="M2750 2166 c0 -9 15 -15 43 -18 50 -6 54 -4 37 17 -16 19 -80 20 -80
1z"/>
<path d="M1630 2130 c0 -5 23 -10 50 -10 28 0 50 5 50 10 0 6 -22 10 -50 10
-27 0 -50 -4 -50 -10z"/>
<path d="M1630 2010 c0 -5 23 -10 50 -10 28 0 50 5 50 10 0 6 -22 10 -50 10
-27 0 -50 -4 -50 -10z"/>
<path d="M2080 1955 c-10 -13 -9 -15 9 -15 12 0 32 -6 44 -14 55 -35 182 -38
202 -5 6 9 -22 6 -63 -7 -22 -7 -103 16 -133 36 -33 24 -43 25 -59 5z"/>
<path d="M2840 1945 c-45 -32 -129 -35 -177 -5 -25 15 -31 16 -26 4 9 -24 63
-46 112 -46 50 0 101 18 141 51 23 19 23 21 5 20 -11 0 -36 -11 -55 -24z"/>
<path d="M892 1888 c2 -15 10 -23 23 -23 30 0 27 39 -3 43 -20 3 -23 0 -20
-20z"/>
<path d="M1640 1901 c0 -12 56 -25 70 -16 6 3 8 11 5 16 -8 12 -75 12 -75 0z"/>
<path d="M2461 1798 c11 -10 25 -18 29 -18 4 0 18 8 29 18 22 17 21 17 -29 17
-50 0 -51 0 -29 -17z"/>
<path d="M1033 1784 c-6 -17 14 -36 32 -31 6 2 11 13 13 25 3 17 -2 22 -18 22
-11 0 -23 -7 -27 -16z"/>
<path d="M1840 1730 c0 -27 5 -50 10 -50 6 0 10 23 10 50 0 28 -4 50 -10 50
-5 0 -10 -22 -10 -50z"/>
<path d="M1960 1730 c0 -27 5 -50 10 -50 6 0 10 23 10 50 0 28 -4 50 -10 50
-5 0 -10 -22 -10 -50z"/>
<path d="M2397 1743 c-14 -14 -5 -21 39 -32 48 -12 130 -6 140 11 10 16 -13
33 -28 21 -26 -20 -68 -23 -104 -8 -42 17 -39 17 -47 8z"/>
<path d="M2070 1701 c0 -12 6 -21 15 -21 8 0 15 4 15 9 0 5 -7 14 -15 21 -13
10 -15 9 -15 -9z"/>
<path d="M1998 1453 c7 -3 16 -2 19 1 4 3 -2 6 -13 5 -11 0 -14 -3 -6 -6z"/>
<path d="M1837 1433 c-11 -10 -8 -41 4 -49 6 -3 18 1 27 9 13 13 13 19 2 31
-14 17 -23 20 -33 9z"/>
<path d="M2465 1530 c-3 -6 1 -7 9 -4 18 7 21 14 7 14 -6 0 -13 -4 -16 -10z"/>
<path d="M2637 1043 c-11 -11 -8 -20 7 -20 8 0 12 6 9 14 -6 15 -7 15 -16 6z"/>
<path d="M2637 999 c7 -7 15 -10 18 -7 3 3 -2 9 -12 12 -14 6 -15 5 -6 -5z"/>
<path d="M2280 940 c-11 -7 -12 -10 -2 -10 7 0 10 -4 7 -10 -3 -5 1 -10 9 -10
17 0 20 8 8 27 -5 8 -13 9 -22 3z"/>
<path d="M2360 910 c18 -16 36 -27 39 -25 7 8 -45 55 -60 55 -7 0 2 -13 21
-30z"/>
<path d="M2510 869 c0 -7 -8 -9 -21 -6 -13 3 -18 2 -13 -3 13 -12 73 -16 74
-5 0 6 -3 10 -7 10 -5 0 -14 4 -20 8 -8 5 -13 3 -13 -4z"/>
<path d="M1911 754 c0 -11 3 -14 6 -6 3 7 2 16 -1 19 -3 4 -6 -2 -5 -13z"/>
<path d="M2174 445 c-8 -19 3 -35 26 -35 22 0 33 23 17 39 -15 15 -37 14 -43
-4z"/>
</g>
</svg>
